# Blender v3.1.2 OBJ File: 'CyberBuilding2.blend'
# www.blender.org
o Cube.001_Cube.002
v -0.750985 4.915614 -1.157308
v -0.750985 8.815615 -1.157308
v -0.750985 4.915614 -2.217308
v -0.750985 8.815615 -2.217308
v -0.590985 4.915614 -1.157308
v -0.590985 8.815615 -1.157308
v -0.590985 4.915614 -2.217308
v -0.590985 8.815615 -2.217308
v -1.961879 -0.184783 1.160971
v -1.961879 9.749272 1.160971
v -1.961879 -0.184783 -1.215024
v -1.961879 9.749272 -1.215024
v 0.414115 -0.184783 1.160971
v 0.414115 9.749272 1.160971
v 0.414115 -0.184783 -1.215024
v 0.414115 9.749272 -1.215024
v -1.961879 1.802029 1.160971
v -1.961879 3.788839 1.160971
v -1.961879 5.775651 1.160971
v -1.961879 7.762461 1.160971
v -1.961879 7.762461 -1.215024
v -1.961879 5.775651 -1.215024
v -1.961879 3.788839 -1.215024
v -1.961879 1.802029 -1.215024
v 0.414115 7.762461 -1.215024
v 0.414115 5.775651 -1.215024
v 0.414115 3.788839 -1.215024
v 0.414115 1.802029 -1.215024
v 0.414115 7.762461 1.160971
v 0.414115 5.775651 1.160971
v 0.414115 3.788839 1.160971
v 0.414115 1.802029 1.160971
vt 0.998764 0.513233
vt 0.955258 0.228665
vt 0.998764 0.228665
vt 0.299481 0.503381
vt 0.292891 0.217785
vt 0.299481 0.217785
vt 0.994065 0.522880
vt 0.959958 0.224573
vt 0.994065 0.224573
vt 0.625000 0.750000
vt 0.375000 1.000000
vt 0.375000 0.750000
vt 0.305685 0.468250
vt 0.285277 0.227892
vt 0.285277 0.468250
vt 0.285277 0.468250
vt 0.305685 0.227892
vt 0.305685 0.468250
vt 0.313725 0.183512
vt 0.256330 0.098189
vt 0.313725 0.098189
vt 0.244946 0.521684
vt 0.113972 0.326981
vt 0.244946 0.326981
vt 0.313857 0.186427
vt 0.251544 0.093793
vt 0.313857 0.093793
vt 0.308665 0.180706
vt 0.253474 0.098661
vt 0.308665 0.098661
vt 0.375000 0.500000
vt 0.125000 0.750000
vt 0.125000 0.500000
vt 0.973624 0.739108
vt 0.772210 0.940522
vt 0.772210 0.739108
vt 0.132750 0.519848
vt 0.003782 0.328126
vt 0.132750 0.328126
vt 0.133951 0.516849
vt 0.002904 0.322038
vt 0.133951 0.322038
vt 0.135890 0.520168
vt 0.006724 0.328152
vt 0.135890 0.328152
vt 0.133956 0.522634
vt 0.002834 0.327710
vt 0.133956 0.327710
vt 0.211662 0.519848
vt 0.082694 0.328126
vt 0.211662 0.328126
vt 0.214133 0.516849
vt 0.083087 0.322038
vt 0.214133 0.322038
vt 0.214923 0.520168
vt 0.085757 0.328152
vt 0.214923 0.328152
vt 0.214186 0.522634
vt 0.083063 0.327710
vt 0.214186 0.327710
vt 0.242051 0.519848
vt 0.113083 0.328126
vt 0.242051 0.328126
vt 0.245013 0.516849
vt 0.113966 0.322038
vt 0.245013 0.322038
vt 0.245359 0.520168
vt 0.116193 0.328152
vt 0.245359 0.328152
vt 0.245083 0.522634
vt 0.113961 0.327710
vt 0.245083 0.327710
vt 0.163140 0.519848
vt 0.034172 0.328126
vt 0.163140 0.328126
vt 0.164830 0.516849
vt 0.033784 0.322038
vt 0.164830 0.322038
vt 0.166327 0.520168
vt 0.037161 0.328152
vt 0.166327 0.328152
vt 0.164854 0.522634
vt 0.033731 0.327710
vt 0.164854 0.327710
vt 0.955258 0.513233
vt 0.292891 0.503381
vt 0.959958 0.522880
vt 0.625000 1.000000
vt 0.305685 0.227892
vt 0.285277 0.227892
vt 0.256330 0.183512
vt 0.113972 0.521684
vt 0.251544 0.186427
vt 0.253474 0.180706
vt 0.375000 0.750000
vt 0.973624 0.940522
vt 0.003782 0.519848
vt 0.002904 0.516849
vt 0.006724 0.520168
vt 0.002834 0.522634
vt 0.082694 0.519848
vt 0.083087 0.516849
vt 0.085757 0.520168
vt 0.083063 0.522634
vt 0.113083 0.519848
vt 0.113966 0.516849
vt 0.116193 0.520168
vt 0.113961 0.522634
vt 0.034172 0.519848
vt 0.033784 0.516849
vt 0.037161 0.520168
vt 0.033731 0.522634
vn -1.0000 0.0000 0.0000
vn 0.0000 0.0000 -1.0000
vn 1.0000 0.0000 0.0000
vn 0.0000 0.0000 1.0000
vn 0.0000 -1.0000 0.0000
vn 0.0000 1.0000 0.0000
s off
f 2/1/1 3/2/1 1/3/1
f 4/4/2 7/5/2 3/6/2
f 8/7/3 5/8/3 7/9/3
f 6/10/4 1/11/4 5/12/4
f 7/13/5 1/14/5 3/15/5
f 4/16/6 6/17/6 8/18/6
f 10/19/1 21/20/1 20/21/1
f 12/22/2 25/23/2 21/24/2
f 16/25/3 29/26/3 25/27/3
f 14/28/4 20/29/4 29/30/4
f 15/31/5 9/32/5 11/33/5
f 12/34/6 14/35/6 16/36/6
f 32/37/4 9/38/4 13/39/4
f 31/40/4 17/41/4 32/42/4
f 30/43/4 18/44/4 31/45/4
f 29/46/4 19/47/4 30/48/4
f 28/49/3 13/50/3 15/51/3
f 27/52/3 32/53/3 28/54/3
f 26/55/3 31/56/3 27/57/3
f 25/58/3 30/59/3 26/60/3
f 24/61/2 15/62/2 11/63/2
f 23/64/2 28/65/2 24/66/2
f 22/67/2 27/68/2 23/69/2
f 21/70/2 26/71/2 22/72/2
f 17/73/1 11/74/1 9/75/1
f 18/76/1 24/77/1 17/78/1
f 19/79/1 23/80/1 18/81/1
f 20/82/1 22/83/1 19/84/1
f 2/1/1 4/85/1 3/2/1
f 4/4/2 8/86/2 7/5/2
f 8/7/3 6/87/3 5/8/3
f 6/10/4 2/88/4 1/11/4
f 7/13/5 5/89/5 1/14/5
f 4/16/6 2/90/6 6/17/6
f 10/19/1 12/91/1 21/20/1
f 12/22/2 16/92/2 25/23/2
f 16/25/3 14/93/3 29/26/3
f 14/28/4 10/94/4 20/29/4
f 15/31/5 13/95/5 9/32/5
f 12/34/6 10/96/6 14/35/6
f 32/37/4 17/97/4 9/38/4
f 31/40/4 18/98/4 17/41/4
f 30/43/4 19/99/4 18/44/4
f 29/46/4 20/100/4 19/47/4
f 28/49/3 32/101/3 13/50/3
f 27/52/3 31/102/3 32/53/3
f 26/55/3 30/103/3 31/56/3
f 25/58/3 29/104/3 30/59/3
f 24/61/2 28/105/2 15/62/2
f 23/64/2 27/106/2 28/65/2
f 22/67/2 26/107/2 27/68/2
f 21/70/2 25/108/2 26/71/2
f 17/73/1 24/109/1 11/74/1
f 18/76/1 23/110/1 24/77/1
f 19/79/1 22/111/1 23/80/1
f 20/82/1 21/112/1 22/83/1
