# Blender v3.1.2 OBJ File: 'CyberBuilding1.blend'
# www.blender.org
o Cube.002_Cube.004
v -0.829552 2.580136 0.829552
v -0.829552 3.246427 0.829552
v -0.829552 2.580136 -0.829552
v -0.829552 3.246427 -0.829552
v 0.829552 2.580136 0.829552
v 0.829552 3.246427 0.829552
v 0.829552 2.580136 -0.829552
v 0.829552 3.246427 -0.829552
v -1.000000 0.047841 1.000000
v -1.000000 2.785086 1.000000
v -1.000000 0.047841 -1.000000
v -1.000000 2.785086 -1.000000
v 1.000000 0.047841 1.000000
v 1.000000 2.785086 1.000000
v 1.000000 0.047841 -1.000000
v 1.000000 2.785086 -1.000000
v -1.000000 2.966934 1.000000
v -1.000000 5.704180 1.000000
v -1.000000 2.966934 -1.000000
v -1.000000 5.704180 -1.000000
v 1.000000 2.966934 1.000000
v 1.000000 5.704180 1.000000
v 1.000000 2.966934 -1.000000
v 1.000000 5.704180 -1.000000
v -1.000000 5.374391 1.000000
v -1.000000 5.374391 -1.000000
v 1.000000 5.374391 -1.000000
v 1.000000 5.374391 1.000000
v 0.333333 2.966934 -1.000000
v -0.333333 2.966934 -1.000000
v -0.333333 5.704180 -1.000000
v 0.333333 5.704180 -1.000000
v -0.333333 2.966934 1.000000
v 0.333333 2.966934 1.000000
v 0.333333 5.704180 1.000000
v -0.333333 5.704180 1.000000
v 0.333333 5.374391 1.000000
v -0.333333 5.374391 1.000000
v -0.333333 5.374391 -1.000000
v 0.333333 5.374391 -1.000000
v -1.000000 0.356885 1.000000
v -1.000000 0.356885 -1.000000
v 1.000000 0.356885 -1.000000
v 1.000000 0.356885 1.000000
v 0.333333 0.047841 -1.000000
v -0.333333 0.047841 -1.000000
v -0.333333 2.785086 -1.000000
v 0.333333 2.785086 -1.000000
v -0.333333 0.047841 1.000000
v 0.333333 0.047841 1.000000
v 0.333333 2.785086 1.000000
v -0.333333 2.785086 1.000000
v 0.333333 0.356885 1.000000
v -0.333333 0.356885 1.000000
v -0.333333 0.356885 -1.000000
v 0.333333 0.356885 -1.000000
v -0.333333 2.966934 0.743792
v 0.333333 2.966934 0.743792
v 0.333333 5.374391 0.743792
v -0.333333 5.374391 0.743792
v 0.333333 2.785086 0.743792
v -0.333333 2.785086 0.743792
v 0.333333 0.356885 0.743792
v -0.333333 0.356885 0.743792
v 0.333333 2.966934 -0.614559
v -0.333333 2.966934 -0.614559
v -0.333333 5.374391 -0.614559
v 0.333333 5.374391 -0.614559
v -0.333333 2.785086 -0.614559
v 0.333333 2.785086 -0.614559
v -0.333333 0.356885 -0.614559
v 0.333333 0.356885 -0.614559
v -1.000000 2.966934 -0.333333
v -1.000000 2.966934 0.333333
v -1.000000 5.704180 0.333333
v -1.000000 5.704180 -0.333333
v 1.000000 2.966934 0.333333
v 1.000000 2.966934 -0.333333
v 1.000000 5.704180 -0.333333
v 1.000000 5.704180 0.333333
v 1.000000 5.374391 -0.333333
v 1.000000 5.374391 0.333333
v -1.000000 5.374391 0.333333
v -1.000000 5.374391 -0.333333
v 0.333333 5.704180 -0.333333
v 0.333333 5.704180 0.333333
v -0.333333 5.704180 -0.333333
v -0.333333 5.704180 0.333333
v -0.333333 2.966934 -0.333333
v -0.333333 2.966934 0.333333
v 0.333333 2.966934 -0.333333
v 0.333333 2.966934 0.333333
v -1.145805 2.966934 -0.333333
v -1.145805 2.966934 0.333333
v -1.145805 5.374391 0.333333
v -1.145805 5.374391 -0.333333
v 1.000000 2.966934 0.333333
v 1.000000 2.966934 -0.333333
v 1.000000 5.374391 -0.333333
v 1.000000 5.374391 0.333333
v 1.000000 5.704180 0.333333
v 1.000000 5.704180 1.000000
v 0.333333 5.704180 1.000000
v 0.333333 5.704180 0.333333
v 1.000000 6.004693 0.333333
v 1.000000 6.004693 1.000000
v 0.333333 6.004693 1.000000
v 0.333333 6.004693 0.333333
v -1.000000 3.396837 -1.000000
v 1.000000 3.396837 -1.000000
v 1.000000 3.396837 1.000000
v -1.000000 3.396837 1.000000
v -0.333333 3.396837 -1.000000
v 0.333333 3.396837 -1.000000
v 0.333333 3.396837 1.000000
v -0.333333 3.396837 1.000000
v 0.333333 3.396837 0.743792
v -0.333333 3.396837 0.743792
v -0.333333 3.396837 -0.614559
v 0.333333 3.396837 -0.614559
v -1.000000 3.396837 0.333333
v -1.000000 3.396837 -0.333333
v 1.000000 3.396837 -0.333333
v 1.000000 3.396837 0.333333
v -1.145805 3.396837 0.333333
v -1.145805 3.396837 -0.333333
v 1.000000 3.396837 -0.333333
v 1.000000 3.396837 0.333333
v 1.000000 3.396837 -1.247502
v 1.000000 2.966934 -1.247502
v 0.333333 2.966934 -1.247502
v 0.333333 3.396837 -1.247502
vt 0.195635 0.740373
vt 0.026769 0.619811
vt 0.195635 0.619811
vt 0.104563 0.669052
vt 0.004769 0.597804
vt 0.104563 0.597804
vt 0.177893 0.982394
vt 0.067113 0.903303
vt 0.177893 0.903303
vt 0.224163 0.797060
vt 0.007610 0.642452
vt 0.224163 0.642452
vt 0.375000 0.500000
vt 0.125000 0.750000
vt 0.125000 0.500000
vt 0.031276 0.943198
vt 0.203719 0.636631
vt 0.203719 0.943198
vt 0.166078 0.993066
vt 0.002196 0.639343
vt 0.166078 0.639343
vt 0.065693 0.980761
vt 0.014251 0.647666
vt 0.065693 0.647666
vt 0.189273 0.927631
vt 0.055733 0.639397
vt 0.189273 0.639397
vt 0.068040 0.992575
vt 0.013655 0.640423
vt 0.068040 0.640423
vt 0.375000 0.500000
vt 0.291667 0.750000
vt 0.291667 0.500000
vt 0.013560 0.984026
vt 0.082852 0.614469
vt 0.082852 0.984026
vt 0.587936 0.046149
vt 0.539030 0.003139
vt 0.587936 0.003139
vt 0.584703 0.048762
vt 0.535161 0.005193
vt 0.584703 0.005193
vt 0.584451 0.048927
vt 0.534532 0.005027
vt 0.584451 0.005027
vt 0.587434 0.048866
vt 0.537654 0.005088
vt 0.587434 0.005088
vt 0.375000 0.666667
vt 0.291667 0.750000
vt 0.291667 0.666667
vt 0.019646 0.722685
vt 0.081389 0.612920
vt 0.081389 0.722685
vt 0.072423 0.918560
vt 0.021556 0.650313
vt 0.072423 0.650313
vt 0.085941 0.917501
vt 0.038475 0.667189
vt 0.085941 0.667189
vt 0.054664 0.895657
vt 0.010039 0.660327
vt 0.054664 0.660327
vt 0.058745 0.949414
vt 0.004390 0.662770
vt 0.058745 0.662770
vt 0.143914 0.895657
vt 0.099289 0.660327
vt 0.143914 0.660327
vt 0.016778 0.804231
vt 0.032878 0.836155
vt 0.016778 0.836155
vt 0.174157 0.918560
vt 0.123290 0.650313
vt 0.174157 0.650313
vt 0.021674 0.801898
vt 0.032376 0.833822
vt 0.021674 0.833822
vt 0.708333 0.666667
vt 0.708333 0.750000
vt 0.708333 0.666667
vt 0.143132 0.612920
vt 0.143132 0.722685
vt 0.208333 0.666667
vt 0.125000 0.750000
vt 0.125000 0.666667
vt 0.686995 0.048866
vt 0.637214 0.005088
vt 0.686995 0.005088
vt 0.637214 0.048866
vt 0.683787 0.048762
vt 0.634245 0.005193
vt 0.683787 0.005193
vt 0.634245 0.048762
vt 0.013655 0.595604
vt 0.068040 0.595604
vt 0.055733 0.602712
vt 0.189273 0.602712
vt 0.014251 0.605272
vt 0.065693 0.605272
vt 0.002196 0.594324
vt 0.166078 0.594324
vt 0.168576 0.647666
vt 0.117134 0.605272
vt 0.168576 0.605272
vt 0.117134 0.647666
vt 0.176809 0.640423
vt 0.122424 0.595604
vt 0.176809 0.595604
vt 0.122424 0.640423
vt 0.152144 0.984026
vt 0.221436 0.614469
vt 0.221436 0.984026
vt 0.208333 0.500000
vt 0.125000 0.750000
vt 0.125000 0.500000
vt 0.208333 0.750000
vt 0.176809 0.992575
vt 0.168576 0.980761
vt 0.510308 0.989258
vt 0.557055 0.537376
vt 0.510308 0.537376
vt 0.550656 0.987623
vt 0.504960 0.545286
vt 0.550656 0.545286
vt 0.021674 0.608080
vt 0.032376 0.788394
vt 0.021674 0.788394
vt 0.594880 0.916667
vt 0.594880 0.833333
vt 0.594880 0.833333
vt 0.058321 0.983005
vt 0.047620 0.836155
vt 0.058321 0.836155
vt 0.058321 0.790727
vt 0.047620 0.610413
vt 0.058321 0.610413
vt 0.152144 0.605136
vt 0.082852 0.652478
vt 0.082852 0.605136
vt 0.552099 0.995434
vt 0.500127 0.536786
vt 0.552099 0.536786
vt 0.548773 0.998548
vt 0.508702 0.545350
vt 0.548773 0.545350
vt 0.016778 0.610413
vt 0.032878 0.790727
vt 0.016778 0.790727
vt 0.594880 0.416667
vt 0.594880 0.333333
vt 0.594880 0.333333
vt 0.060592 0.983005
vt 0.044492 0.836155
vt 0.060592 0.836155
vt 0.060592 0.790727
vt 0.044492 0.610413
vt 0.060592 0.610413
vt 0.082852 0.974693
vt 0.152144 0.903472
vt 0.152144 0.974693
vt 0.291667 0.583333
vt 0.208333 0.583333
vt 0.208333 0.500000
vt 0.125000 0.583333
vt 0.125000 0.500000
vt 0.143132 0.942215
vt 0.081389 0.832450
vt 0.143132 0.832450
vt 0.204875 0.832450
vt 0.204875 0.942215
vt 0.204875 0.722685
vt 0.167457 0.949414
vt 0.113101 0.662770
vt 0.167457 0.662770
vt 0.027889 0.621919
vt 0.015257 0.688132
vt 0.027889 0.688132
vt 0.180873 0.917501
vt 0.133407 0.667189
vt 0.180873 0.667189
vt 0.375000 0.583333
vt 0.375000 0.666667
vt 0.019646 0.942215
vt 0.081389 0.942215
vt 0.375000 0.500000
vt 0.291667 0.500000
vt 0.684288 0.048927
vt 0.634369 0.005027
vt 0.684288 0.005027
vt 0.634369 0.048927
vt 0.685748 0.046149
vt 0.636842 0.003139
vt 0.685748 0.003139
vt 0.636842 0.046149
vt 0.113101 0.949414
vt 0.058745 0.662770
vt 0.113101 0.662770
vt 0.125000 0.583333
vt 0.027889 0.992716
vt 0.015257 0.688132
vt 0.027889 0.688132
vt 0.019646 0.832450
vt 0.006143 0.722685
vt 0.019646 0.722685
vt 0.133407 0.917501
vt 0.085941 0.667189
vt 0.133407 0.667189
vt 0.414264 0.583333
vt 0.594880 0.583333
vt 0.414264 0.583333
vt 0.594880 0.583333
vt 0.594880 0.666667
vt 0.414264 0.666667
vt 0.414264 0.666667
vt 0.126367 0.625773
vt 0.006293 0.721996
vt 0.006293 0.625773
vt 0.625000 0.666667
vt 0.625000 0.666667
vt 0.625000 0.750000
vt 0.625000 0.750000
vt 0.625000 0.833333
vt 0.625000 0.833333
vt 0.143132 0.722685
vt 0.204875 0.612920
vt 0.204875 0.722685
vt 0.085941 0.959244
vt 0.038475 0.997282
vt 0.038475 0.959244
vt 0.054664 0.934902
vt 0.010039 0.970663
vt 0.010039 0.934902
vt 0.166202 0.670713
vt 0.053364 0.761138
vt 0.053364 0.670713
vt 0.594880 0.666667
vt 0.375000 0.583333
vt 0.085941 0.612773
vt 0.133407 0.612773
vt 0.015257 0.621919
vt 0.027889 0.621919
vt 0.058745 0.600456
vt 0.113101 0.600456
vt 0.133407 0.612773
vt 0.180873 0.612773
vt 0.015257 0.992716
vt 0.027889 0.992716
vt 0.113101 0.600456
vt 0.167457 0.600456
vt 0.414264 0.333333
vt 0.375000 0.333333
vt 0.375000 0.333333
vt 0.099289 0.660327
vt 0.054664 0.609169
vt 0.099289 0.609169
vt 0.047620 0.804231
vt 0.058321 0.804231
vt 0.123290 0.650313
vt 0.072423 0.591999
vt 0.123290 0.591999
vt 0.032376 0.980672
vt 0.021674 0.980672
vt 0.213811 0.739318
vt 0.151382 0.667750
vt 0.213811 0.667750
vt 0.032878 0.983005
vt 0.016778 0.983005
vt 0.099289 0.609169
vt 0.143914 0.609169
vt 0.004390 0.600456
vt 0.058745 0.600456
vt 0.198495 0.667189
vt 0.038475 0.612773
vt 0.085941 0.612773
vt 0.088954 0.739318
vt 0.026525 0.667750
vt 0.088954 0.667750
vt 0.054664 0.660327
vt 0.010039 0.609169
vt 0.054664 0.609169
vt 0.097910 0.875581
vt 0.030302 0.666811
vt 0.097910 0.666811
vt 0.375000 0.500000
vt 0.204875 0.942215
vt 0.143132 0.982965
vt 0.143132 0.942215
vt 0.026769 0.740373
vt 0.004769 0.669052
vt 0.067113 0.982394
vt 0.007610 0.797060
vt 0.375000 0.750000
vt 0.031276 0.636631
vt 0.002196 0.993066
vt 0.014251 0.980761
vt 0.055733 0.927631
vt 0.013655 0.992575
vt 0.375000 0.750000
vt 0.013560 0.614469
vt 0.539030 0.046149
vt 0.535161 0.048762
vt 0.534532 0.048927
vt 0.537654 0.048866
vt 0.375000 0.750000
vt 0.019646 0.612920
vt 0.021556 0.918560
vt 0.038475 0.917501
vt 0.010039 0.895657
vt 0.004390 0.949414
vt 0.099289 0.895657
vt 0.032878 0.804231
vt 0.123290 0.918560
vt 0.032376 0.801898
vt 0.708333 0.750000
vt 0.208333 0.750000
vt 0.152144 0.614469
vt 0.122424 0.992575
vt 0.117134 0.980761
vt 0.557055 0.989258
vt 0.504960 0.987623
vt 0.032376 0.608080
vt 0.594880 0.916667
vt 0.047620 0.983005
vt 0.047620 0.790727
vt 0.152144 0.652478
vt 0.500127 0.995434
vt 0.508702 0.998548
vt 0.032878 0.610413
vt 0.594880 0.416667
vt 0.044492 0.983005
vt 0.044492 0.790727
vt 0.082852 0.903472
vt 0.113101 0.949414
vt 0.015257 0.621919
vt 0.133407 0.917501
vt 0.019646 0.832450
vt 0.058745 0.949414
vt 0.125000 0.666667
vt 0.015257 0.992716
vt 0.006143 0.832450
vt 0.085941 0.917501
vt 0.126367 0.721996
vt 0.143132 0.612920
vt 0.085941 0.997282
vt 0.054664 0.970663
vt 0.166202 0.761138
vt 0.414264 0.333333
vt 0.054664 0.660327
vt 0.072423 0.650313
vt 0.151382 0.739318
vt 0.198495 0.612773
vt 0.026525 0.739318
vt 0.010039 0.660327
vt 0.030302 0.875581
vt 0.291667 0.500000
vt 0.204875 0.982965
vn -1.0000 0.0000 0.0000
vn 0.0000 0.0000 -1.0000
vn 1.0000 0.0000 0.0000
vn 0.0000 0.0000 1.0000
vn 0.0000 -1.0000 0.0000
vn 0.0000 1.0000 0.0000
s off
f 2/1/1 3/2/1 1/3/1
f 4/4/2 7/5/2 3/6/2
f 8/7/3 5/8/3 7/9/3
f 6/10/4 1/11/4 5/12/4
f 7/13/5 1/14/5 3/15/5
f 4/16/6 6/17/6 8/18/6
f 10/19/1 42/20/1 41/21/1
f 48/22/2 43/23/2 56/24/2
f 16/25/3 44/26/3 43/27/3
f 52/28/4 41/29/4 54/30/4
f 15/31/5 50/32/5 45/33/5
f 12/34/6 52/35/6 47/36/6
f 76/37/1 26/38/1 84/39/1
f 32/40/2 27/41/2 40/42/2
f 80/43/3 28/44/3 82/45/3
f 36/46/4 25/47/4 38/48/4
f 77/49/5 34/50/5 92/51/5
f 75/52/6 36/53/6 88/54/6
f 38/55/4 112/56/4 116/57/4
f 82/58/3 111/59/3 124/60/3
f 40/61/2 110/62/2 114/63/2
f 84/64/1 109/65/1 122/66/1
f 26/67/2 113/68/2 109/69/2
f 29/70/1 120/71/1 114/72/1
f 28/73/4 115/74/4 111/75/4
f 33/76/3 118/77/3 116/78/3
f 86/79/4 103/80/4 104/81/4
f 88/54/6 35/82/6 86/83/6
f 90/84/5 17/85/5 74/86/5
f 22/87/4 37/88/4 28/89/4
f 35/90/4 38/48/4 37/88/4
f 20/91/2 39/92/2 26/93/2
f 31/94/2 40/42/2 39/92/2
f 54/30/4 9/95/4 49/96/4
f 43/27/3 13/97/3 15/98/3
f 56/24/2 15/99/2 45/100/2
f 41/21/1 11/101/1 9/102/1
f 42/103/2 46/104/2 11/105/2
f 55/106/2 45/100/2 46/104/2
f 44/107/4 50/108/4 13/109/4
f 53/110/4 49/96/4 50/108/4
f 48/111/6 14/112/6 16/113/6
f 46/114/5 9/115/5 11/116/5
f 45/33/5 49/117/5 46/114/5
f 14/118/4 53/110/4 44/107/4
f 12/119/2 55/106/2 42/103/2
f 59/120/4 118/121/4 117/122/4
f 61/123/4 64/124/4 63/125/4
f 54/126/3 62/127/3 52/128/3
f 38/129/5 59/130/5 37/131/5
f 37/132/1 117/133/1 115/134/1
f 51/135/1 63/136/1 53/137/1
f 53/138/6 64/139/6 54/140/6
f 67/141/2 120/142/2 119/143/2
f 69/144/2 72/145/2 71/146/2
f 56/147/1 70/148/1 48/149/1
f 40/150/5 67/151/5 39/152/5
f 39/153/3 119/154/3 113/155/3
f 47/156/3 71/157/3 55/158/3
f 55/159/6 72/160/6 56/161/6
f 91/162/5 90/84/5 89/163/5
f 30/164/5 73/165/5 19/166/5
f 89/163/5 74/86/5 73/165/5
f 32/167/6 87/168/6 85/169/6
f 87/168/6 86/83/6 85/169/6
f 32/167/6 79/170/6 24/171/6
f 85/169/6 80/172/6 79/170/6
f 25/173/1 121/174/1 112/175/1
f 73/176/2 126/177/2 122/178/2
f 27/179/3 123/180/3 110/181/3
f 77/49/4 98/182/4 97/183/4
f 20/184/6 87/168/6 31/185/6
f 87/168/6 75/52/6 88/54/6
f 23/186/5 91/162/5 29/187/5
f 91/162/5 77/49/5 92/51/5
f 24/188/3 81/189/3 27/190/3
f 79/191/3 82/45/3 81/189/3
f 18/192/1 83/193/1 25/194/1
f 75/195/1 84/39/1 83/193/1
f 95/196/1 126/197/1 125/198/1
f 74/86/5 93/199/5 73/165/5
f 83/200/4 125/201/4 121/202/4
f 84/203/6 95/204/6 83/205/6
f 99/206/3 128/207/3 127/208/3
f 123/209/4 99/210/4 127/211/4
f 81/212/4 100/213/4 99/210/4
f 124/214/4 97/183/4 128/215/4
f 103/216/1 108/217/1 104/218/1
f 80/219/4 104/81/4 101/220/4
f 22/221/4 101/220/4 102/222/4
f 35/223/4 102/222/4 103/224/4
f 108/225/6 106/226/6 105/227/6
f 101/228/3 106/229/3 102/230/3
f 104/231/2 105/232/2 101/233/2
f 102/234/4 107/235/4 103/236/4
f 82/237/4 128/215/4 100/213/4
f 78/238/4 127/211/4 98/182/4
f 127/208/3 97/239/3 98/240/3
f 121/202/4 94/241/4 74/242/4
f 125/198/1 93/243/1 94/244/1
f 110/181/3 78/245/3 23/246/3
f 122/178/2 96/247/2 84/248/2
f 112/175/1 74/249/1 17/250/1
f 113/251/3 66/252/3 30/253/3
f 119/254/2 65/255/2 66/256/2
f 115/134/1 58/257/1 34/258/1
f 117/259/4 57/260/4 58/261/4
f 116/78/3 60/262/3 38/263/3
f 111/264/4 34/265/4 21/266/4
f 114/72/1 68/267/1 40/268/1
f 109/69/2 30/269/2 19/270/2
f 122/66/1 19/271/1 73/272/1
f 23/246/3 129/273/3 110/181/3
f 124/60/3 21/274/3 77/275/3
f 116/276/4 17/277/4 33/278/4
f 132/279/2 130/280/2 131/281/2
f 114/282/1 131/283/1 29/284/1
f 29/187/5 130/285/5 23/186/5
f 110/286/6 132/287/6 114/288/6
f 2/1/1 4/289/1 3/2/1
f 4/4/2 8/290/2 7/5/2
f 8/7/3 6/291/3 5/8/3
f 6/10/4 2/292/4 1/11/4
f 7/13/5 5/293/5 1/14/5
f 4/16/6 2/294/6 6/17/6
f 10/19/1 12/295/1 42/20/1
f 48/22/2 16/296/2 43/23/2
f 16/25/3 14/297/3 44/26/3
f 52/28/4 10/298/4 41/29/4
f 15/31/5 13/299/5 50/32/5
f 12/34/6 10/300/6 52/35/6
f 76/37/1 20/301/1 26/38/1
f 32/40/2 24/302/2 27/41/2
f 80/43/3 22/303/3 28/44/3
f 36/46/4 18/304/4 25/47/4
f 77/49/5 21/305/5 34/50/5
f 75/52/6 18/306/6 36/53/6
f 38/55/4 25/307/4 112/56/4
f 82/58/3 28/308/3 111/59/3
f 40/61/2 27/309/2 110/62/2
f 84/64/1 26/310/1 109/65/1
f 26/67/2 39/311/2 113/68/2
f 29/70/1 65/312/1 120/71/1
f 28/73/4 37/313/4 115/74/4
f 33/76/3 57/314/3 118/77/3
f 86/79/4 35/315/4 103/80/4
f 88/54/6 36/53/6 35/82/6
f 90/84/5 33/316/5 17/85/5
f 22/87/4 35/90/4 37/88/4
f 35/90/4 36/46/4 38/48/4
f 20/91/2 31/94/2 39/92/2
f 31/94/2 32/40/2 40/42/2
f 54/30/4 41/29/4 9/95/4
f 43/27/3 44/26/3 13/97/3
f 56/24/2 43/23/2 15/99/2
f 41/21/1 42/20/1 11/101/1
f 42/103/2 55/106/2 46/104/2
f 55/106/2 56/24/2 45/100/2
f 44/107/4 53/110/4 50/108/4
f 53/110/4 54/30/4 49/96/4
f 48/111/6 51/317/6 14/112/6
f 46/114/5 49/117/5 9/115/5
f 45/33/5 50/32/5 49/117/5
f 14/118/4 51/318/4 53/110/4
f 12/119/2 47/319/2 55/106/2
f 59/120/4 60/320/4 118/121/4
f 61/123/4 62/321/4 64/124/4
f 54/126/3 64/322/3 62/127/3
f 38/129/5 60/323/5 59/130/5
f 37/132/1 59/324/1 117/133/1
f 51/135/1 61/325/1 63/136/1
f 53/138/6 63/326/6 64/139/6
f 67/141/2 68/327/2 120/142/2
f 69/144/2 70/328/2 72/145/2
f 56/147/1 72/329/1 70/148/1
f 40/150/5 68/330/5 67/151/5
f 39/153/3 67/331/3 119/154/3
f 47/156/3 69/332/3 71/157/3
f 55/159/6 71/333/6 72/160/6
f 91/162/5 92/51/5 90/84/5
f 30/164/5 89/163/5 73/165/5
f 89/163/5 90/84/5 74/86/5
f 32/167/6 31/185/6 87/168/6
f 87/168/6 88/54/6 86/83/6
f 32/167/6 85/169/6 79/170/6
f 85/169/6 86/83/6 80/172/6
f 25/173/1 83/334/1 121/174/1
f 73/176/2 93/335/2 126/177/2
f 27/179/3 81/336/3 123/180/3
f 77/49/4 78/238/4 98/182/4
f 20/184/6 76/337/6 87/168/6
f 87/168/6 76/337/6 75/52/6
f 23/186/5 78/238/5 91/162/5
f 91/162/5 78/238/5 77/49/5
f 24/188/3 79/191/3 81/189/3
f 79/191/3 80/43/3 82/45/3
f 18/192/1 75/195/1 83/193/1
f 75/195/1 76/37/1 84/39/1
f 95/196/1 96/338/1 126/197/1
f 74/86/5 94/339/5 93/199/5
f 83/200/4 95/340/4 125/201/4
f 84/203/6 96/341/6 95/204/6
f 99/206/3 100/342/3 128/207/3
f 123/209/4 81/212/4 99/210/4
f 81/212/4 82/237/4 100/213/4
f 124/214/4 77/49/4 97/183/4
f 103/216/1 107/343/1 108/217/1
f 80/219/4 86/79/4 104/81/4
f 22/221/4 80/219/4 101/220/4
f 35/223/4 22/221/4 102/222/4
f 108/225/6 107/344/6 106/226/6
f 101/228/3 105/345/3 106/229/3
f 104/231/2 108/346/2 105/232/2
f 102/234/4 106/347/4 107/235/4
f 82/237/4 124/214/4 128/215/4
f 78/238/4 123/209/4 127/211/4
f 127/208/3 128/207/3 97/239/3
f 121/202/4 125/201/4 94/241/4
f 125/198/1 126/197/1 93/243/1
f 110/181/3 123/180/3 78/245/3
f 122/178/2 126/177/2 96/247/2
f 112/175/1 121/174/1 74/249/1
f 113/251/3 119/348/3 66/252/3
f 119/254/2 120/349/2 65/255/2
f 115/134/1 117/133/1 58/257/1
f 117/259/4 118/350/4 57/260/4
f 116/78/3 118/77/3 60/262/3
f 111/264/4 115/351/4 34/265/4
f 114/72/1 120/71/1 68/267/1
f 109/69/2 113/68/2 30/269/2
f 122/66/1 109/65/1 19/271/1
f 23/246/3 130/352/3 129/273/3
f 124/60/3 111/59/3 21/274/3
f 116/276/4 112/353/4 17/277/4
f 132/279/2 129/354/2 130/280/2
f 114/282/1 132/355/1 131/283/1
f 29/187/5 131/356/5 130/285/5
f 110/286/6 129/357/6 132/287/6
