# Blender v3.1.2 OBJ File: 'CyberBuilding4.blend'
# www.blender.org
o Cube.003_Cube.008
v -1.574829 0.063291 1.498187
v -1.574829 7.482879 1.498187
v -1.574829 0.063291 -1.273509
v -1.574829 7.482879 -1.273509
v 1.196867 0.063291 1.498187
v 1.196867 7.482879 1.498187
v 1.196867 0.063291 -1.273509
v 1.196867 7.482879 -1.273509
v 0.066936 3.895001 0.115065
v 0.066936 9.792824 0.115065
v 0.066936 3.895001 -2.088152
v 0.066936 9.792824 -2.088152
v 2.270154 3.895001 0.115065
v 2.270154 9.792824 0.115065
v 2.270154 3.895001 -2.088152
v 2.270154 9.792824 -2.088152
v 0.066936 8.689417 0.115065
v 0.066936 8.689417 -2.088152
v 2.270154 8.689417 -2.088152
v 2.270154 8.689417 0.115065
v -1.574829 6.788938 1.498187
v -1.574829 6.788938 -1.273509
v 1.196867 6.788938 -1.273509
v 1.196867 6.788938 1.498187
v 2.270154 8.689417 -0.292913
v 2.270154 9.792824 -0.292913
v 2.270154 9.792824 -1.726268
v 2.270154 8.689417 -1.726268
v 1.979902 8.689417 0.115065
v 1.979902 9.792824 0.115065
v 0.430309 8.689417 0.115065
v 0.430309 9.792824 0.115065
v 0.066936 9.792824 -1.761708
v 0.066936 8.689417 -1.761708
v 0.066936 9.792824 -0.206280
v 0.066936 8.689417 -0.206281
v 1.944716 9.792824 -2.088152
v 1.944717 8.689417 -2.088152
v 0.395853 8.689417 -2.088152
v 0.395853 9.792824 -2.088152
v 0.066936 9.637328 0.115065
v 0.066936 9.637328 -2.088152
v 2.270154 9.637328 -2.088152
v 2.270154 9.637328 0.115065
v 2.270154 9.637328 -0.292913
v 2.270154 9.637328 -1.726268
v 1.979902 9.637328 0.115065
v 0.430309 9.637328 0.115065
v 0.066936 9.637328 -1.761708
v 0.066936 9.637328 -0.206281
v 1.944716 9.637328 -2.088152
v 0.395853 9.637328 -2.088152
v 1.944716 9.637328 -2.088152
v 0.395853 9.637328 -2.088152
v 0.395853 8.689417 -2.235786
v 1.944717 8.689417 -2.235786
v 1.944716 9.637328 -2.235786
v 0.395853 9.637328 -2.235786
v 2.400629 8.689417 -1.726268
v 2.400629 8.689417 -0.292913
v 2.400629 9.637328 -1.726268
v 2.400629 9.637328 -0.292913
v 1.979902 9.637328 0.241734
v 1.979902 8.689417 0.241734
v 0.430309 8.689417 0.241734
v 0.430309 9.637328 0.241734
v -0.077894 8.689417 -0.206281
v -0.077894 8.689417 -1.761708
v -0.077894 9.637328 -1.761708
v -0.077894 9.637328 -0.206281
vt 0.207339 0.586533
vt 0.013524 0.529453
vt 0.207339 0.529453
vt 0.337339 0.518744
vt 0.272280 0.489786
vt 0.337339 0.489786
vt 0.006972 0.890198
vt 0.226112 0.987736
vt 0.006972 0.987736
vt 0.192686 0.587735
vt 0.030144 0.527870
vt 0.192686 0.527870
vt 0.375000 0.500000
vt 0.125000 0.750000
vt 0.125000 0.500000
vt 0.933109 0.668356
vt 0.758504 0.842961
vt 0.758504 0.668356
vt 0.806057 0.494910
vt 0.798468 0.501438
vt 0.798468 0.494910
vt 0.796073 0.517067
vt 0.787325 0.509715
vt 0.796073 0.509715
vt 0.769558 0.510381
vt 0.760172 0.503211
vt 0.769558 0.503211
vt 0.771051 0.509115
vt 0.763513 0.501936
vt 0.771051 0.501936
vt 0.375000 0.500000
vt 0.125000 0.750000
vt 0.125000 0.500000
vt 0.933109 0.694227
vt 0.904312 0.842961
vt 0.758504 0.810629
vt 0.723272 0.458174
vt 0.713835 0.458174
vt 0.713835 0.236830
vt 0.722997 0.459505
vt 0.712416 0.459505
vt 0.712416 0.238444
vt 0.746132 0.464896
vt 0.737477 0.464896
vt 0.737477 0.238211
vt 0.761738 0.455116
vt 0.754029 0.455116
vt 0.754029 0.253839
vt 0.337648 0.517921
vt 0.265282 0.205745
vt 0.337648 0.205745
vt 0.333546 0.530141
vt 0.257828 0.203506
vt 0.333546 0.203506
vt 0.272280 0.209134
vt 0.337339 0.209134
vt 0.346054 0.498455
vt 0.277721 0.203674
vt 0.346054 0.203674
vt 0.746132 0.509715
vt 0.787325 0.509715
vt 0.722997 0.510381
vt 0.712416 0.503211
vt 0.722997 0.503211
vt 0.760172 0.510381
vt 0.763513 0.509115
vt 0.723272 0.501936
vt 0.723272 0.509115
vt 0.713835 0.501936
vt 0.761738 0.501438
vt 0.754029 0.494910
vt 0.761738 0.494910
vt 0.746132 0.517067
vt 0.737477 0.509715
vt 0.787325 0.517067
vt 0.798468 0.455116
vt 0.761738 0.455116
vt 0.723272 0.501936
vt 0.760172 0.459505
vt 0.722997 0.459505
vt 0.763513 0.458174
vt 0.771051 0.458174
vt 0.769558 0.459505
vt 0.787325 0.464896
vt 0.796073 0.464896
vt 0.806057 0.455116
vt 0.787325 0.509715
vt 0.746132 0.509715
vt 0.312747 0.022082
vt 0.256072 0.083745
vt 0.256072 0.022082
vt 0.787325 0.464896
vt 0.746132 0.464896
vt 0.746132 0.509715
vt 0.309983 0.082980
vt 0.258836 0.022847
vt 0.309983 0.022847
vt 0.760172 0.503211
vt 0.760172 0.459505
vt 0.722997 0.503211
vt 0.312092 0.083018
vt 0.256727 0.022809
vt 0.312092 0.022809
vt 0.723272 0.458174
vt 0.763513 0.458174
vt 0.763513 0.501936
vt 0.309677 0.025538
vt 0.259142 0.080289
vt 0.259142 0.025538
vt 0.798468 0.494910
vt 0.761738 0.494910
vt 0.798468 0.455116
vt 0.013524 0.586533
vt 0.272280 0.518744
vt 0.226112 0.890198
vt 0.030144 0.587735
vt 0.375000 0.750000
vt 0.933109 0.842961
vt 0.806057 0.501438
vt 0.375000 0.750000
vt 0.758504 0.697035
vt 0.758504 0.668356
vt 0.784295 0.668356
vt 0.907042 0.668356
vt 0.933109 0.668356
vt 0.781507 0.842961
vt 0.758504 0.842961
vt 0.933109 0.817494
vt 0.933109 0.842961
vt 0.771051 0.236830
vt 0.769558 0.238444
vt 0.796073 0.238211
vt 0.806057 0.253839
vt 0.265282 0.517921
vt 0.257828 0.530141
vt 0.277721 0.498455
vt 0.712416 0.510381
vt 0.713835 0.509115
vt 0.754029 0.501438
vt 0.737477 0.517067
vt 0.312747 0.083745
vt 0.258836 0.082980
vt 0.256727 0.083018
vt 0.309677 0.080289
vn -1.0000 0.0000 0.0000
vn 0.0000 0.0000 -1.0000
vn 1.0000 0.0000 0.0000
vn 0.0000 0.0000 1.0000
vn 0.0000 -1.0000 0.0000
vn 0.0000 1.0000 0.0000
s off
f 2/1/1 22/2/1 21/3/1
f 4/4/2 23/5/2 22/6/2
f 8/7/3 24/8/3 23/9/3
f 6/10/4 21/11/4 24/12/4
f 7/13/5 1/14/5 3/15/5
f 4/16/6 6/17/6 8/18/6
f 41/19/1 35/20/1 50/21/1
f 12/22/2 52/23/2 42/24/2
f 16/25/3 46/26/3 43/27/3
f 14/28/4 47/29/4 44/30/4
f 15/31/5 9/32/5 11/33/5
f 33/34/6 32/35/6 26/36/6
f 31/37/4 17/38/4 9/39/4
f 25/40/3 20/41/3 13/42/3
f 38/43/2 19/44/2 15/45/2
f 34/46/1 18/47/1 11/48/1
f 24/49/4 1/50/4 5/51/4
f 23/52/3 5/53/3 7/54/3
f 22/6/2 7/55/2 3/56/2
f 21/57/1 3/58/1 1/59/1
f 51/60/6 58/61/6 52/23/6
f 26/62/3 44/63/3 45/64/3
f 27/65/3 45/64/3 46/26/3
f 30/66/4 48/67/4 47/29/4
f 32/68/4 41/69/4 48/67/4
f 33/70/1 42/71/1 49/72/1
f 35/20/1 49/72/1 50/21/1
f 37/73/2 43/74/2 51/60/2
f 40/75/2 51/60/2 52/23/2
f 38/43/2 43/74/2 19/44/2
f 36/76/5 68/77/5 34/46/5
f 49/72/1 18/47/1 34/46/1
f 48/67/4 17/38/4 31/37/4
f 31/37/1 66/78/1 48/67/1
f 28/79/5 60/80/5 25/40/5
f 45/64/3 20/41/3 25/40/3
f 44/30/4 29/81/4 20/82/4
f 43/27/3 28/79/3 19/83/3
f 42/24/2 39/84/2 18/85/2
f 17/86/1 50/21/1 36/76/1
f 51/60/4 54/87/4 53/88/4
f 55/89/2 57/90/2 56/91/2
f 52/23/1 55/92/1 39/84/1
f 39/84/5 56/93/5 38/43/5
f 38/43/3 57/94/3 51/60/3
f 61/95/3 60/96/3 59/97/3
f 45/64/6 61/98/6 46/26/6
f 46/26/2 59/99/2 28/79/2
f 25/40/4 62/100/4 45/64/4
f 63/101/4 65/102/4 64/103/4
f 29/81/5 65/104/5 31/37/5
f 47/29/3 64/105/3 29/81/3
f 48/67/6 63/106/6 47/29/6
f 67/107/1 69/108/1 68/109/1
f 49/72/6 70/110/6 50/21/6
f 34/46/2 69/111/2 49/72/2
f 50/21/4 67/112/4 36/76/4
f 2/1/1 4/113/1 22/2/1
f 4/4/2 8/114/2 23/5/2
f 8/7/3 6/115/3 24/8/3
f 6/10/4 2/116/4 21/11/4
f 7/13/5 5/117/5 1/14/5
f 4/16/6 2/118/6 6/17/6
f 41/19/1 10/119/1 35/20/1
f 12/22/2 40/75/2 52/23/2
f 16/25/3 27/65/3 46/26/3
f 14/28/4 30/66/4 47/29/4
f 15/31/5 13/120/5 9/32/5
f 27/121/6 16/122/6 37/123/6
f 40/124/6 12/125/6 33/34/6
f 27/121/6 37/123/6 40/124/6
f 30/126/6 14/127/6 26/36/6
f 26/36/6 27/121/6 40/124/6
f 40/124/6 33/34/6 26/36/6
f 33/34/6 35/128/6 32/35/6
f 35/128/6 10/129/6 32/35/6
f 32/35/6 30/126/6 26/36/6
f 9/39/4 13/130/4 31/37/4
f 13/130/4 20/82/4 29/81/4
f 29/81/4 31/37/4 13/130/4
f 13/42/3 15/131/3 25/40/3
f 15/131/3 19/83/3 28/79/3
f 28/79/3 25/40/3 15/131/3
f 15/45/2 11/132/2 39/84/2
f 11/132/2 18/85/2 39/84/2
f 39/84/2 38/43/2 15/45/2
f 11/48/1 9/133/1 34/46/1
f 9/133/1 17/86/1 36/76/1
f 36/76/1 34/46/1 9/133/1
f 24/49/4 21/134/4 1/50/4
f 23/52/3 24/135/3 5/53/3
f 22/6/2 23/5/2 7/55/2
f 21/57/1 22/136/1 3/58/1
f 51/60/6 57/94/6 58/61/6
f 26/62/3 14/137/3 44/63/3
f 27/65/3 26/62/3 45/64/3
f 30/66/4 32/68/4 48/67/4
f 32/68/4 10/138/4 41/69/4
f 33/70/1 12/139/1 42/71/1
f 35/20/1 33/70/1 49/72/1
f 37/73/2 16/140/2 43/74/2
f 40/75/2 37/73/2 51/60/2
f 38/43/2 51/60/2 43/74/2
f 36/76/5 67/112/5 68/77/5
f 49/72/1 42/71/1 18/47/1
f 48/67/4 41/69/4 17/38/4
f 31/37/1 65/104/1 66/78/1
f 28/79/5 59/99/5 60/80/5
f 45/64/3 44/63/3 20/41/3
f 44/30/4 47/29/4 29/81/4
f 43/27/3 46/26/3 28/79/3
f 42/24/2 52/23/2 39/84/2
f 17/86/1 41/19/1 50/21/1
f 51/60/4 52/23/4 54/87/4
f 55/89/2 58/141/2 57/90/2
f 52/23/1 58/61/1 55/92/1
f 39/84/5 55/92/5 56/93/5
f 38/43/3 56/93/3 57/94/3
f 61/95/3 62/142/3 60/96/3
f 45/64/6 62/100/6 61/98/6
f 46/26/2 61/98/2 59/99/2
f 25/40/4 60/80/4 62/100/4
f 63/101/4 66/143/4 65/102/4
f 29/81/5 64/105/5 65/104/5
f 47/29/3 63/106/3 64/105/3
f 48/67/6 66/78/6 63/106/6
f 67/107/1 70/144/1 69/108/1
f 49/72/6 69/111/6 70/110/6
f 34/46/2 68/77/2 69/111/2
f 50/21/4 70/110/4 67/112/4
